<svg width="28" height="28" viewBox="0 0 28 28" fill="none" xmlns="http://www.w3.org/2000/svg">
<rect width="28" height="28" rx="14" fill="#D15050"/>
<path fill-rule="evenodd" clip-rule="evenodd" d="M11.0287 7.95049C11.1414 7.61714 11.3292 7.31051 11.5819 7.05637C12.0154 6.62044 12.6042 6.37476 13.2191 6.37476H14.781C15.3958 6.37476 15.9846 6.62044 16.4181 7.05637C16.6708 7.31051 16.8586 7.61714 16.9713 7.95049H20.25C20.6642 7.95049 21 8.28627 21 8.70049C21 9.1147 20.6642 9.45049 20.25 9.45049H20.1893L19.4355 18.5506C19.4269 19.3614 19.1029 20.138 18.5309 20.7132C17.951 21.2964 17.1636 21.6249 16.3416 21.6249H11.6535C10.8315 21.6249 10.0441 21.2964 9.46422 20.7132C8.89223 20.1379 8.56829 19.3614 8.55969 18.5506L7.80588 9.45049H7.75C7.33579 9.45049 7 9.1147 7 8.70049C7 8.28627 7.33579 7.95049 7.75 7.95049H11.0287ZM15.1138 7.94676H12.8863C12.9901 7.89967 13.1034 7.87476 13.2191 7.87476H14.781C14.8966 7.87476 15.0099 7.89967 15.1138 7.94676ZM13.5765 11.5875C13.688 11.4754 13.8391 11.4124 13.9968 11.4124C14.1544 11.4124 14.3055 11.4754 14.417 11.5875C14.5284 11.6996 14.5911 11.8516 14.5911 12.0101V17.9873C14.5911 18.1458 14.5284 18.2978 14.417 18.4099C14.3055 18.522 14.1544 18.585 13.9968 18.585C13.8391 18.585 13.688 18.522 13.5765 18.4099C13.4651 18.2978 13.4024 18.1458 13.4024 17.9873V12.0101C13.4024 11.8516 13.4651 11.6996 13.5765 11.5875ZM16.7212 11.5816C16.8313 11.4799 16.9756 11.4235 17.1251 11.424L17.175 11.4252C17.2537 11.4323 17.3293 11.4546 17.3991 11.4918C17.4689 11.5289 17.5313 11.5798 17.5813 11.6412C17.6803 11.7628 17.7281 11.919 17.7137 12.0755L17.1959 18.027C17.1831 18.1765 17.1145 18.3157 17.0044 18.4169C16.8943 18.5181 16.7508 18.5739 16.6016 18.5734H16.5529C16.4747 18.5669 16.3985 18.5453 16.3288 18.5091C16.2591 18.473 16.1971 18.4236 16.1466 18.3632C16.0961 18.3029 16.0587 18.233 16.0351 18.1577C16.0116 18.0825 16.0026 18.0028 16.0096 17.9243L16.5308 11.9727C16.5431 11.8228 16.611 11.6833 16.7212 11.5816ZM10.8092 11.424H10.8591H10.8603C11.011 11.4227 11.1567 11.4791 11.2677 11.5816C11.3787 11.6842 11.4466 11.8251 11.4581 11.9762L11.9758 17.9278C11.9886 18.085 11.9388 18.2414 11.8377 18.362C11.7883 18.4223 11.7277 18.4718 11.6589 18.508C11.5901 18.5441 11.5145 18.5659 11.4372 18.5722C11.419 18.5745 11.4008 18.5745 11.3826 18.5722C11.2335 18.5727 11.0888 18.517 10.9787 18.4158C10.8686 18.3145 10.8011 18.1753 10.7883 18.0258L10.2694 12.0743C10.2571 11.9165 10.3067 11.7604 10.4075 11.6388C10.5084 11.5173 10.6526 11.4401 10.8092 11.424Z" fill="white"/>
</svg>
