<svg width="28" height="28" viewBox="0 0 28 28" fill="none" xmlns="http://www.w3.org/2000/svg">
<path fill-rule="evenodd" clip-rule="evenodd" d="M8.64286 6.5H19.3571C20.5406 6.5 21.5 7.45939 21.5 8.64286V19.3571C21.5 20.5406 20.5406 21.5 19.3571 21.5H8.64286C7.45939 21.5 6.5 20.5406 6.5 19.3571V8.64286C6.5 7.45939 7.45939 6.5 8.64286 6.5ZM17.7423 12.5273C17.9782 12.2753 17.9651 11.8798 17.7131 11.6439C17.4611 11.4081 17.0655 11.4211 16.8297 11.6732L13.0648 15.6957L11.2306 13.8614C10.9866 13.6174 10.5908 13.6174 10.3467 13.8614C10.1027 14.1055 10.1027 14.5012 10.3467 14.7453L12.6378 17.0364C12.7575 17.1561 12.9207 17.2221 13.0901 17.2193C13.2594 17.2165 13.4203 17.1451 13.536 17.0215L17.7423 12.5273Z" fill="#2A82F0"/>
</svg>
