<svg width="24" height="24" viewBox="0 0 24 24" fill="none" xmlns="http://www.w3.org/2000/svg">
<path d="M3.81907 19.7865L19.9742 12.4469C20.0671 12.3939 20.1443 12.3171 20.198 12.2244C20.2517 12.1316 20.28 12.0263 20.28 11.919C20.28 11.8117 20.2517 11.7063 20.198 11.6136C20.1443 11.5208 20.0671 11.444 19.9742 11.391L3.81907 4.05148C3.72559 4.00903 3.62254 3.99237 3.52053 4.00322C3.41851 4.01407 3.32122 4.05203 3.23867 4.11319C3.15612 4.17435 3.09129 4.25651 3.05087 4.35119C3.01044 4.44588 2.99588 4.54968 3.00867 4.6519L3.74131 10.5077L4.0532 10.7845L14.0017 11.5342C14.0981 11.5421 14.188 11.5862 14.2535 11.6577C14.319 11.7291 14.3554 11.8227 14.3554 11.9198C14.3554 12.017 14.319 12.1106 14.2535 12.182C14.188 12.2535 14.0981 12.2976 14.0017 12.3055L4.06616 13.0552L3.73181 13.3398L3.00435 19.1887C3.00138 19.2125 2.99994 19.2366 3.00003 19.2607C3.00008 19.3576 3.02433 19.453 3.07056 19.538C3.11679 19.6231 3.18352 19.6952 3.26466 19.7477C3.34579 19.8002 3.43874 19.8314 3.53499 19.8385C3.63124 19.8455 3.72772 19.8283 3.81561 19.7882L3.81907 19.7865Z" fill="black" fill-opacity="0.3"/>
</svg>
